<svg width="74" height="75" viewBox="0 0 74 75" fill="none" xmlns="http://www.w3.org/2000/svg">
<g id="call_black_24dp (2) 1" clip-path="url(#clip0_1000_863)">
<path id="Vector" d="M20.165 16.1432C20.35 18.8874 20.8125 21.5699 21.5525 24.1291L17.8525 27.8291C16.5883 24.1291 15.7867 20.2132 15.5092 16.1432H20.165ZM50.5667 53.2049C53.1875 53.9449 55.87 54.4074 58.5833 54.5924V59.1866C54.5133 58.9091 50.5975 58.1074 46.8667 56.8741L50.5667 53.2049ZM23.125 9.97656H12.3333C10.6375 9.97656 9.25 11.3641 9.25 13.0599C9.25 42.0124 32.7142 65.4766 61.6667 65.4766C63.3625 65.4766 64.75 64.0891 64.75 62.3932V51.6324C64.75 49.9366 63.3625 48.5491 61.6667 48.5491C57.8433 48.5491 54.1125 47.9324 50.6592 46.7916C50.3508 46.6682 50.0117 46.6374 49.7033 46.6374C48.9017 46.6374 48.1308 46.9457 47.5142 47.5316L40.7308 54.3149C32.005 49.8441 24.8517 42.7216 20.4117 33.9957L27.195 27.2124C28.0583 26.3491 28.305 25.1466 27.9658 24.0674C26.825 20.6141 26.2083 16.9141 26.2083 13.0599C26.2083 11.3641 24.8208 9.97656 23.125 9.97656Z" fill="#0F172A"/>
</g>
<defs>
<clipPath id="clip0_1000_863">
<rect width="74" height="74" fill="white" transform="translate(0 0.726562)"/>
</clipPath>
</defs>
</svg>
