<svg width="40" height="40" viewBox="0 0 40 40" fill="none" xmlns="http://www.w3.org/2000/svg">
<g id="message-circle">
<path id="Vector" d="M34.2547 18.9643C34.2603 21.0889 33.7639 23.1847 32.806 25.0811C31.6703 27.3535 29.9243 29.2649 27.7636 30.6011C25.6029 31.9373 23.1129 32.6456 20.5725 32.6466C18.4479 32.6521 16.3521 32.1557 14.4557 31.1978L5.28052 34.2562L8.33891 25.0811C7.38104 23.1847 6.88466 21.0889 6.8902 18.9643C6.89118 16.4238 7.59944 13.9338 8.93564 11.7731C10.2718 9.61246 12.1832 7.86647 14.4557 6.73074C16.3521 5.77287 18.4479 5.27649 20.5725 5.28203H21.3773C24.7324 5.46713 27.9014 6.88327 30.2774 9.25932C32.6535 11.6354 34.0696 14.8043 34.2547 18.1595V18.9643Z" stroke="black" stroke-width="3.21936" stroke-linecap="round" stroke-linejoin="round"/>
</g>
</svg>
